<svg width="608" height="323" viewBox="0 0 608 323" fill="none" xmlns="http://www.w3.org/2000/svg">
<path d="M173.214 73.7094V109.852H190.262V143.95H173.214V182.593H130.479V73.7094H173.214ZM13.6388 75.5279H110.475V109.852H56.374V131.447H110.475V165.545H13.6388V75.5279ZM18.1851 178.047H60.9203V212.144H173.214V246.469H18.1851V178.047ZM363.002 73.7094V97.5774H380.051V126.446H363.002V151.451H320.494V73.7094H363.002ZM306.855 103.715H203.882V75.9825H306.855V103.715ZM298.217 108.261L297.535 121.445H306.855V149.178H203.882V121.445H213.202L212.52 108.261H249.572L250.254 121.445H260.483L261.392 108.261H298.217ZM208.428 156.907H363.002V181.457H251.163V190.095H360.729V213.508H251.163V221.919H363.002V246.469H208.428V156.907Z" fill="#7B4B42"/>
<path d="M2.62286 45.492H45.5854V49.1115H2.62286V45.492ZM21.8747 34.7907H26.2286V47.4329H21.8747V34.7907ZM21.8747 17.5847H25.7041V18.6339C25.7041 28.3385 16.8912 34.6333 6.60962 36.4169L4.93098 32.9547C14.2159 31.4859 21.8747 25.9779 21.8747 18.6339V17.5847ZM22.4517 17.5847H26.2286V18.6339C26.2286 25.9779 33.8874 31.4859 43.1723 32.9547L41.4937 36.4169C31.2121 34.6333 22.4517 28.3385 22.4517 18.6339V17.5847ZM6.55716 15.1192H41.4937V18.7388H6.55716V15.1192ZM21.8747 8.66698H26.2286V16.4307H21.8747V8.66698ZM83.298 7.61784H87.652V41.9773H83.298V7.61784ZM86.3406 21.7288H94.6813V25.3484H86.3406V21.7288ZM53.0302 30.0171H56.7022C66.4593 30.0171 71.9673 29.7548 78.3146 28.4434L78.7867 31.958C72.282 33.3219 66.6691 33.6366 56.7022 33.6366H53.0302V30.0171ZM53.0302 11.7095H73.9606V15.3291H57.3317V31.958H53.0302V11.7095ZM58.1186 50.4754H89.8027V54.0425H58.1186V50.4754ZM58.1186 38.5676H62.4725V52.1016H58.1186V38.5676ZM133.653 7.6703H138.007V55.0917H133.653V7.6703ZM119.752 12.7587H124.053C124.053 26.5025 117.863 38.5152 102.021 46.2788L99.7131 42.7642C113.404 36.1546 119.752 26.0828 119.752 13.4931V12.7587ZM101.864 12.7587H121.64V16.3257H101.864V12.7587ZM194.565 7.6703H198.919V31.8006H194.565V7.6703ZM197.03 17.847H205.896V21.4666H197.03V17.847ZM168.808 34.0563H198.919V45.7018H173.215V52.7835H168.913V42.397H194.67V37.5185H168.808V34.0563ZM168.913 50.9475H200.65V54.4622H168.913V50.9475ZM175.208 9.34893C182.342 9.34893 187.483 13.7029 187.483 19.8928C187.483 26.1353 182.342 30.4892 175.208 30.4892C168.179 30.4892 162.986 26.1353 162.986 19.8928C162.986 13.7029 168.179 9.34893 175.208 9.34893ZM175.208 12.916C170.644 12.916 167.235 15.8012 167.235 19.8928C167.235 24.037 170.644 26.9221 175.208 26.9221C179.877 26.9221 183.287 24.037 183.287 19.8928C183.287 15.8012 179.877 12.916 175.208 12.916ZM242.454 7.6703H246.861V55.0917H242.454V7.6703ZM245.811 26.2926H254.624V30.0171H245.811V26.2926ZM212.239 11.657H216.54V24.1943H230.074V11.657H234.376V43.7084H212.239V11.657ZM216.54 27.6565V40.1413H230.074V27.6565H216.54ZM290.711 7.61784H295.117V55.0917H290.711V7.61784ZM293.911 26.8697H302.671V30.4892H293.911V26.8697ZM278.593 12.7587H282.842C282.842 26.2402 276.652 38.4103 261.335 46.1215L258.922 42.7642C272.036 36.1021 278.593 25.9779 278.593 13.4406V12.7587ZM261.125 12.7587H280.849V16.3257H261.125V12.7587ZM356.186 7.6703H360.593V32.2203H356.186V7.6703ZM329.643 34.5284H360.593V45.9641H334.05V53.0983H329.8V42.7118H356.239V37.9906H329.643V34.5284ZM329.8 51.1049H362.324V54.5671H329.8V51.1049ZM323.768 10.8702H349.21V14.3324H323.768V10.8702ZM322.929 30.6466L322.456 27.027C330.902 27.027 342.233 26.8172 351.465 25.6631L351.728 28.863C342.285 30.2794 331.269 30.5941 322.929 30.6466ZM328.437 12.4439H332.633V28.6007H328.437V12.4439ZM340.292 12.4439H344.541V28.6007H340.292V12.4439ZM380.418 32.0629H384.719V46.2788H380.418V32.0629ZM397.938 32.0629H402.292V46.2788H397.938V32.0629ZM369.926 45.4395H412.889V49.0591H369.926V45.4395ZM391.329 10.6604C401.348 10.6604 408.535 15.434 408.535 22.8829C408.535 30.2794 401.348 35.053 391.329 35.053C381.257 35.053 374.07 30.2794 374.07 22.8829C374.07 15.434 381.257 10.6604 391.329 10.6604ZM391.329 14.1225C383.722 14.1225 378.267 17.5847 378.267 22.8829C378.267 28.1286 383.722 31.5908 391.329 31.5908C398.935 31.5908 404.338 28.1286 404.338 22.8829C404.338 17.5847 398.935 14.1225 391.329 14.1225ZM450.601 7.51292H454.955V33.6891H450.601V7.51292ZM453.119 18.8961H461.985V22.5682H453.119V18.8961ZM424.845 36.1021H454.955V46.6985H429.251V52.4688H424.95V43.5511H450.706V39.4069H424.845V36.1021ZM424.95 51.2098H456.686V54.5671H424.95V51.2098ZM418.288 11.9193H446.3V15.3291H418.288V11.9193ZM432.294 17.4273C439.113 17.4273 443.625 20.4174 443.625 25.2435C443.625 30.0171 439.113 32.9547 432.294 32.9547C425.369 32.9547 420.911 30.0171 420.911 25.2435C420.911 20.4174 425.369 17.4273 432.294 17.4273ZM432.294 20.6272C427.887 20.6272 425.055 22.4108 425.055 25.2435C425.055 28.0237 427.887 29.8073 432.294 29.8073C436.648 29.8073 439.48 28.0237 439.48 25.2435C439.48 22.4108 436.648 20.6272 432.294 20.6272ZM430.091 7.14572H434.445V14.2799H430.091V7.14572ZM508.313 8.66698H512.353V52.7311H508.313V8.66698ZM510.674 26.9746H519.434V30.5417H510.674V26.9746ZM482.557 39.1447H484.445C486.281 39.1447 489.376 39.0922 493.048 38.2004L493.416 41.82C489.481 42.7642 486.439 42.7642 484.445 42.7642H482.557V39.1447ZM482.557 13.598H492.681V17.1651H486.596V41.1905H482.557V13.598ZM494.727 39.1447H496.72C499.238 39.1447 502.543 39.0397 506.163 38.0431L506.582 41.6626C502.7 42.7118 499.448 42.7642 496.72 42.7642H494.727V39.1447ZM494.727 13.598H505.166V17.1651H498.714V41.0331H494.727V13.598ZM517.913 7.6703H522.057V55.0917H517.913V7.6703Z" fill="#707070"/>
<path d="M582.381 198.423C556.719 242.636 489.952 244.622 446.901 215.239C403.849 185.856 391.731 128.657 419.833 87.4825C473.063 22.718 480.703 100.052 523.755 129.435C566.806 158.819 598.914 143.57 582.381 198.423Z" fill="#7B4B42"/>
<path d="M509.971 148.221C505.796 153.944 491.806 147.919 481.937 138.361C472.068 128.803 472.152 117.274 476.924 112.346C486.329 105.46 485.861 120.286 495.73 129.844C505.599 139.402 511.931 139.655 509.971 148.221Z" fill="#F3E9CA"/>
<mask id="mask0_261_4064" style="mask-type:alpha" maskUnits="userSpaceOnUse" x="404" y="62" width="183" height="173">
<path d="M582.381 198.423C556.719 242.636 489.952 244.622 446.901 215.239C403.849 185.856 391.731 128.657 419.833 87.4825C473.063 22.718 480.703 100.052 523.755 129.435C566.806 158.819 598.914 143.57 582.381 198.423Z" fill="#7B4B42"/>
</mask>
<g mask="url(#mask0_261_4064)">
<path d="M460.862 191.869C542.385 239.468 602.755 220.848 574.407 236.932C546.059 253.016 444.275 293.417 412.227 236.932C380.178 180.446 338.853 98.2291 367.201 82.1452C395.549 66.0614 378.867 143.994 460.862 191.869Z" fill="#4F1111"/>
</g>
</svg>
