<svg width="40" height="41" viewBox="0 0 40 41" fill="none" xmlns="http://www.w3.org/2000/svg">
<g id="notifications">
<path id="Vector" d="M20 36.75C21.8334 36.75 23.3334 35.25 23.3334 33.4167H16.6667C16.6667 35.25 18.1667 36.75 20 36.75ZM30 26.75V18.4167C30 13.3 27.2834 9.01667 22.5 7.88333V6.75C22.5 5.36667 21.3834 4.25 20 4.25C18.6167 4.25 17.5 5.36667 17.5 6.75V7.88333C12.7334 9.01667 10 13.2833 10 18.4167V26.75L6.66669 30.0833V31.75H33.3334V30.0833L30 26.75ZM26.6667 28.4167H13.3334V18.4167C13.3334 14.2833 15.85 10.9167 20 10.9167C24.15 10.9167 26.6667 14.2833 26.6667 18.4167V28.4167Z" fill="black"/>
</g>
</svg>
